<?xml version="1.0" standalone="no"?><!-- Generator: Gravit.io --><svg xmlns="http://www.w3.org/2000/svg" xmlns:xlink="http://www.w3.org/1999/xlink" style="isolation:isolate" viewBox="424.602 270 385 302.136" width="385" height="302.136"><g id="emblem"><path d=" M 616.18 319.945 L 616.18 369.999 L 616.181 369.999 L 616.181 369.999 L 616.181 370 L 637.841 382.506 L 616.181 369.999 L 616.275 369.945 L 616.181 369.999 L 616.18 319.945 Z  M 616.181 270.001 L 616.181 270 C 616.181 270 616.18 270 616.18 270 C 616.18 270 616.18 270 616.18 270 L 616.18 270.001 C 603.808 280.899 590.181 290.737 575.359 299.295 C 560.537 307.852 545.204 314.734 529.58 320 L 529.579 319.999 C 529.579 319.999 529.579 320 529.579 320 C 529.579 320 529.578 320 529.577 320 L 529.58 320.002 C 532.832 336.165 534.538 352.884 534.538 369.999 C 534.538 387.115 532.832 403.834 529.579 419.998 L 529.578 419.998 C 529.579 419.999 529.579 419.999 529.579 419.999 C 529.579 419.999 529.579 419.999 529.579 420 L 529.58 419.999 C 545.204 425.264 560.537 432.146 575.359 440.704 C 590.181 449.261 603.807 459.099 616.179 469.997 L 616.179 469.999 C 616.179 469.998 616.18 469.998 616.18 469.998 C 616.181 469.998 616.181 469.998 616.181 469.999 L 616.181 469.997 C 628.553 459.099 642.179 449.261 657.001 440.704 C 671.823 432.146 687.157 425.264 702.781 419.999 L 702.782 420 C 702.782 419.999 702.782 419.999 702.782 419.999 C 702.782 419.998 702.782 419.998 702.782 419.998 L 702.782 419.998 C 699.53 403.835 697.823 387.115 697.823 369.999 C 697.823 352.884 699.53 336.164 702.782 320.001 L 702.783 320 C 702.783 320 702.782 320 702.782 320 C 702.782 320 702.782 319.999 702.782 319.999 L 702.781 320 C 687.157 314.734 671.824 307.853 657.002 299.295 C 642.179 290.737 628.553 280.899 616.181 270.001 Z " fill="rgb(69,91,102)"/><path d=" M 616.179 370 L 616.18 370 L 616.181 370 L 616.182 277.266 C 603.181 288.318 589.989 297.202 578.111 304.06 C 564.365 311.995 550.23 318.506 535.873 323.633 L 535.871 323.632 C 535.871 323.632 535.871 323.633 535.871 323.634 C 535.871 323.634 535.871 323.634 535.871 323.634 L 535.872 323.634 C 538.941 340.418 540.039 356.284 540.039 369.999 C 540.039 385.871 538.61 401.368 535.871 416.365 L 535.869 416.366 C 551.94 422.1 566.231 429.083 578.109 435.941 C 591.855 443.877 604.561 452.864 616.18 462.734 L 616.179 370 Z " fill="rgb(131,201,158)"/><g id="inner_hex"><path d=" M 616.182 420 L 594.532 407.5 L 572.881 395 L 572.881 370 L 572.881 345 L 594.532 332.5 L 616.182 320 L 616.182 420 Z " fill="rgb(69,91,102)"/><path d=" M 616.182 420 L 637.833 407.5 L 659.483 395 L 659.483 370 L 659.483 345 L 637.833 332.5 L 616.182 320 L 616.182 420 Z " fill="rgb(131,201,158)"/><path d=" M 616.182 411.922 L 598.03 401.441 L 579.877 390.961 L 579.877 370 L 579.877 349.039 L 598.03 338.559 L 616.182 328.078" fill="rgb(131,201,158)"/><path d=" M 616.182 411.922 L 634.335 401.441 L 652.487 390.961 L 652.487 370 L 652.487 349.039 L 634.335 338.559 L 616.182 328.078" fill="rgb(69,91,102)"/></g><path d=" M 572.881 391 L 579.881 391 L 579.881 439 L 572.881 439 L 572.881 391 Z " fill="rgb(69,91,102)"/><g id="head"><path d=" M 582.055 396.257 L 579.954 399.897 Q 579.454 399.608 578.679 399.161 C 578.138 398.848 575.631 398.885 574.093 397.805 C 573.965 397.716 573.751 397.508 573.584 397.329 C 571.801 395.411 570.618 394.349 567.829 392.251 C 566.872 391.532 567.332 390.346 568.453 388.404 Q 568.621 388.501 582.055 396.257 Z  M 582.055 396.257 L 584.156 392.617 Q 583.657 392.329 582.882 391.881 C 582.341 391.569 581.119 389.38 579.415 388.588 C 579.274 388.522 578.987 388.44 578.748 388.385 C 576.195 387.8 574.684 387.306 571.473 385.939 C 570.372 385.471 569.574 386.462 568.453 388.404 Q 568.621 388.501 582.055 396.257 Z " fill-rule="evenodd" fill="rgb(131,201,158)"/><path d=" M 580.653 399.487 L 584.151 393.427 Q 583.021 392.775 582.408 392.421 C 581.953 392.158 580.468 389.749 579.063 389.198 C 578.517 388.984 575.884 388.664 571.199 386.581 C 570.697 386.358 570.066 386.998 569.054 388.751" fill="rgb(69,91,102)"/><path d=" M 584.151 393.427 L 580.653 399.487 Q 579.206 398.652 578.909 398.481 C 578.454 398.218 575.625 398.137 574.445 397.195 C 573.987 396.83 572.394 394.709 568.247 391.693 C 567.803 391.37 568.041 390.504 569.054 388.751" fill="rgb(69,91,102)"/></g></g><path d=" M 486.279 550.383 L 470.092 510.026 L 476.611 510.026 L 485.4 532.914 L 485.4 532.914 Q 488.293 540.751 488.989 544.23 L 488.989 544.23 L 489.282 544.23 L 489.282 544.23 Q 489.758 542.363 491.278 537.84 L 491.278 537.84 L 491.278 537.84 Q 492.797 533.317 501.22 510.026 L 501.22 510.026 L 507.739 510.026 L 490.49 555.729 L 490.49 555.729 Q 487.927 562.504 484.503 565.342 L 484.503 565.342 L 484.503 565.342 Q 481.079 568.181 476.098 568.181 L 476.098 568.181 L 476.098 568.181 Q 473.315 568.181 470.605 567.558 L 470.605 567.558 L 470.605 562.687 L 470.605 562.687 Q 472.619 563.127 475.109 563.127 L 475.109 563.127 L 475.109 563.127 Q 481.372 563.127 484.045 556.096 L 484.045 556.096 L 486.279 550.383 Z  M 450.182 550.895 L 450.182 550.895 L 450.182 550.895 Q 446.263 550.895 443.022 549.449 L 443.022 549.449 L 443.022 549.449 Q 439.781 548.002 437.584 544.999 L 437.584 544.999 L 437.145 544.999 L 437.145 544.999 Q 437.584 548.515 437.584 551.664 L 437.584 551.664 L 437.584 568.181 L 431.505 568.181 L 431.505 510.026 L 436.449 510.026 L 437.291 515.519 L 437.584 515.519 L 437.584 515.519 Q 439.928 512.224 443.041 510.759 L 443.041 510.759 L 443.041 510.759 Q 446.153 509.294 450.182 509.294 L 450.182 509.294 L 450.182 509.294 Q 458.165 509.294 462.505 514.75 L 462.505 514.75 L 462.505 514.75 Q 466.844 520.207 466.844 530.058 L 466.844 530.058 L 466.844 530.058 Q 466.844 539.946 462.431 545.421 L 462.431 545.421 L 462.431 545.421 Q 458.019 550.895 450.182 550.895 Z  M 449.303 514.457 L 449.303 514.457 L 449.303 514.457 Q 443.15 514.457 440.404 517.863 L 440.404 517.863 L 440.404 517.863 Q 437.657 521.269 437.584 528.703 L 437.584 528.703 L 437.584 530.058 L 437.584 530.058 Q 437.584 538.517 440.404 542.161 L 440.404 542.161 L 440.404 542.161 Q 443.224 545.805 449.449 545.805 L 449.449 545.805 L 449.449 545.805 Q 454.65 545.805 457.598 541.594 L 457.598 541.594 L 457.598 541.594 Q 460.546 537.382 460.546 529.985 L 460.546 529.985 L 460.546 529.985 Q 460.546 522.477 457.598 518.467 L 457.598 518.467 L 457.598 518.467 Q 454.65 514.457 449.303 514.457 Z " fill-rule="evenodd" fill="rgb(69,91,102)"/><path d=" M 557.248 550.163 L 550.033 550.163 L 542.672 526.616 L 542.672 526.616 Q 541.977 524.455 540.072 516.801 L 540.072 516.801 L 539.779 516.801 L 539.779 516.801 Q 538.315 523.21 537.216 526.689 L 537.216 526.689 L 529.635 550.163 L 522.604 550.163 L 511.654 510.026 L 518.026 510.026 L 518.026 510.026 Q 521.908 525.151 523.941 533.061 L 523.941 533.061 L 523.941 533.061 Q 525.973 540.971 526.266 543.718 L 526.266 543.718 L 526.559 543.718 L 526.559 543.718 Q 526.962 541.63 527.859 538.316 L 527.859 538.316 L 527.859 538.316 Q 528.756 535.002 529.416 533.061 L 529.416 533.061 L 536.776 510.026 L 543.368 510.026 L 550.546 533.061 L 550.546 533.061 Q 552.597 539.36 553.329 543.644 L 553.329 543.644 L 553.622 543.644 L 553.622 543.644 Q 553.769 542.326 554.41 539.579 L 554.41 539.579 L 554.41 539.579 Q 555.05 536.833 562.045 510.026 L 562.045 510.026 L 568.344 510.026 L 557.248 550.163 Z  M 591.55 550.895 L 591.55 550.895 L 591.55 550.895 Q 582.651 550.895 577.506 545.475 L 577.506 545.475 L 577.506 545.475 Q 572.361 540.056 572.361 530.424 L 572.361 530.424 L 572.361 530.424 Q 572.361 520.72 577.14 515.007 L 577.14 515.007 L 577.14 515.007 Q 581.919 509.294 589.976 509.294 L 589.976 509.294 L 589.976 509.294 Q 597.52 509.294 601.914 514.256 L 601.914 514.256 L 601.914 514.256 Q 606.309 519.218 606.309 527.348 L 606.309 527.348 L 606.309 531.193 L 578.66 531.193 L 578.66 531.193 Q 578.843 538.261 582.23 541.923 L 582.23 541.923 L 582.23 541.923 Q 585.618 545.585 591.77 545.585 L 591.77 545.585 L 591.77 545.585 Q 598.252 545.585 604.587 542.875 L 604.587 542.875 L 604.587 548.295 L 604.587 548.295 Q 601.365 549.687 598.49 550.291 L 598.49 550.291 L 598.49 550.291 Q 595.615 550.895 591.55 550.895 Z  M 589.902 514.384 L 589.902 514.384 L 589.902 514.384 Q 585.068 514.384 582.194 517.534 L 582.194 517.534 L 582.194 517.534 Q 579.319 520.683 578.806 526.249 L 578.806 526.249 L 599.79 526.249 L 599.79 526.249 Q 599.79 520.5 597.227 517.442 L 597.227 517.442 L 597.227 517.442 Q 594.663 514.384 589.902 514.384 Z  M 634.349 509.367 L 634.349 509.367 L 634.349 509.367 Q 642.259 509.367 646.636 514.769 L 646.636 514.769 L 646.636 514.769 Q 651.012 520.17 651.012 530.058 L 651.012 530.058 L 651.012 530.058 Q 651.012 539.946 646.599 545.421 L 646.599 545.421 L 646.599 545.421 Q 642.186 550.895 634.349 550.895 L 634.349 550.895 L 634.349 550.895 Q 630.431 550.895 627.19 549.449 L 627.19 549.449 L 627.19 549.449 Q 623.949 548.002 621.752 544.999 L 621.752 544.999 L 621.312 544.999 L 620.03 550.163 L 615.672 550.163 L 615.672 493.181 L 621.752 493.181 L 621.752 507.023 L 621.752 507.023 Q 621.752 511.674 621.459 515.373 L 621.459 515.373 L 621.752 515.373 L 621.752 515.373 Q 626 509.367 634.349 509.367 Z  M 633.47 514.457 L 633.47 514.457 L 633.47 514.457 Q 627.245 514.457 624.498 518.028 L 624.498 518.028 L 624.498 518.028 Q 621.752 521.599 621.752 530.058 L 621.752 530.058 L 621.752 530.058 Q 621.752 538.517 624.571 542.161 L 624.571 542.161 L 624.571 542.161 Q 627.391 545.805 633.617 545.805 L 633.617 545.805 L 633.617 545.805 Q 639.22 545.805 641.966 541.722 L 641.966 541.722 L 641.966 541.722 Q 644.713 537.639 644.713 529.985 L 644.713 529.985 L 644.713 529.985 Q 644.713 522.148 641.966 518.303 L 641.966 518.303 L 641.966 518.303 Q 639.22 514.457 633.47 514.457 Z " fill-rule="evenodd" fill="rgb(131,201,158)"/><path d=" M 676.525 550.163 L 669.421 550.163 L 654.187 510.026 L 660.705 510.026 L 669.348 533.83 L 669.348 533.83 Q 672.277 542.18 672.79 544.67 L 672.79 544.67 L 673.083 544.67 L 673.083 544.67 Q 673.486 542.729 675.628 536.632 L 675.628 536.632 L 675.628 536.632 Q 677.771 530.534 685.241 510.026 L 685.241 510.026 L 691.76 510.026 L 676.525 550.163 Z  M 703.284 510.026 L 703.284 550.163 L 697.205 550.163 L 697.205 510.026 L 703.284 510.026 Z  M 696.692 499.15 L 696.692 499.15 L 696.692 499.15 Q 696.692 497.062 697.718 496.092 L 697.718 496.092 L 697.718 496.092 Q 698.743 495.121 700.281 495.121 L 700.281 495.121 L 700.281 495.121 Q 701.746 495.121 702.808 496.11 L 702.808 496.11 L 702.808 496.11 Q 703.87 497.099 703.87 499.15 L 703.87 499.15 L 703.87 499.15 Q 703.87 501.201 702.808 502.208 L 702.808 502.208 L 702.808 502.208 Q 701.746 503.215 700.281 503.215 L 700.281 503.215 L 700.281 503.215 Q 698.743 503.215 697.718 502.208 L 697.718 502.208 L 697.718 502.208 Q 696.692 501.201 696.692 499.15 Z  M 732.13 550.895 L 732.13 550.895 L 732.13 550.895 Q 723.232 550.895 718.086 545.475 L 718.086 545.475 L 718.086 545.475 Q 712.941 540.056 712.941 530.424 L 712.941 530.424 L 712.941 530.424 Q 712.941 520.72 717.72 515.007 L 717.72 515.007 L 717.72 515.007 Q 722.499 509.294 730.556 509.294 L 730.556 509.294 L 730.556 509.294 Q 738.1 509.294 742.494 514.256 L 742.494 514.256 L 742.494 514.256 Q 746.889 519.218 746.889 527.348 L 746.889 527.348 L 746.889 531.193 L 719.24 531.193 L 719.24 531.193 Q 719.423 538.261 722.81 541.923 L 722.81 541.923 L 722.81 541.923 Q 726.198 545.585 732.35 545.585 L 732.35 545.585 L 732.35 545.585 Q 738.832 545.585 745.168 542.875 L 745.168 542.875 L 745.168 548.295 L 745.168 548.295 Q 741.945 549.687 739.07 550.291 L 739.07 550.291 L 739.07 550.291 Q 736.195 550.895 732.13 550.895 Z  M 730.483 514.384 L 730.483 514.384 L 730.483 514.384 Q 725.649 514.384 722.774 517.534 L 722.774 517.534 L 722.774 517.534 Q 719.899 520.683 719.386 526.249 L 719.386 526.249 L 740.37 526.249 L 740.37 526.249 Q 740.37 520.5 737.807 517.442 L 737.807 517.442 L 737.807 517.442 Q 735.243 514.384 730.483 514.384 Z  M 796.243 550.163 L 789.028 550.163 L 781.668 526.616 L 781.668 526.616 Q 780.972 524.455 779.067 516.801 L 779.067 516.801 L 778.775 516.801 L 778.775 516.801 Q 777.31 523.21 776.211 526.689 L 776.211 526.689 L 768.63 550.163 L 761.599 550.163 L 750.65 510.026 L 757.022 510.026 L 757.022 510.026 Q 760.903 525.151 762.936 533.061 L 762.936 533.061 L 762.936 533.061 Q 764.968 540.971 765.261 543.718 L 765.261 543.718 L 765.554 543.718 L 765.554 543.718 Q 765.957 541.63 766.854 538.316 L 766.854 538.316 L 766.854 538.316 Q 767.752 535.002 768.411 533.061 L 768.411 533.061 L 775.772 510.026 L 782.363 510.026 L 789.541 533.061 L 789.541 533.061 Q 791.592 539.36 792.324 543.644 L 792.324 543.644 L 792.617 543.644 L 792.617 543.644 Q 792.764 542.326 793.405 539.579 L 793.405 539.579 L 793.405 539.579 Q 794.046 536.833 801.04 510.026 L 801.04 510.026 L 807.339 510.026 L 796.243 550.163 Z " fill-rule="evenodd" fill="rgb(69,91,102)"/></svg>